<?xml version="1.0" encoding="UTF-8" standalone="no"?>
<svg
   xmlns:dc="http://purl.org/dc/elements/1.1/"
   xmlns:cc="http://creativecommons.org/ns#"
   xmlns:rdf="http://www.w3.org/1999/02/22-rdf-syntax-ns#"
   xmlns:svg="http://www.w3.org/2000/svg"
   xmlns="http://www.w3.org/2000/svg"
   xmlns:sodipodi="http://sodipodi.sourceforge.net/DTD/sodipodi-0.dtd"
   xmlns:inkscape="http://www.inkscape.org/namespaces/inkscape"
   version="1.1"
   id="svg10"
   xml:space="preserve"
   width="140.70901"
   height="69.58979"
   viewBox="0 0 140.70901 69.58979"
   sodipodi:docname="Phase1.svg"
   inkscape:version="1.0.1 (1.0.1+r74)"><metadata
     id="metadata16"><rdf:RDF><cc:Work
         rdf:about=""><dc:format>image/svg+xml</dc:format><dc:type
           rdf:resource="http://purl.org/dc/dcmitype/StillImage" /><dc:title></dc:title></cc:Work></rdf:RDF></metadata><defs
     id="defs14" /><sodipodi:namedview
     pagecolor="#ffffff"
     bordercolor="#666666"
     borderopacity="1"
     objecttolerance="10"
     gridtolerance="10"
     guidetolerance="10"
     inkscape:pageopacity="0"
     inkscape:pageshadow="2"
     inkscape:window-width="1294"
     inkscape:window-height="704"
     id="namedview12"
     showgrid="false"
     inkscape:zoom="7.8603484"
     inkscape:cx="70.354507"
     inkscape:cy="34.604064"
     inkscape:window-x="72"
     inkscape:window-y="27"
     inkscape:window-maximized="1"
     inkscape:current-layer="g20" /><g
     id="g18"
     inkscape:groupmode="layer"
     inkscape:label="Phase1"
     transform="matrix(1.3333333,0,0,1.3333333,0,1.4064115e-6)"><g
       id="g20"><g
         id="g22"
         transform="scale(0.967665,1)"><path
           d="M 44.647,32.082 H 60.923"
           style="fill:none;stroke:#000000;stroke-width:0.763627;stroke-linecap:round;stroke-linejoin:miter;stroke-miterlimit:4;stroke-dasharray:none;stroke-opacity:1"
           id="path24" /></g><g
         id="g26"
         transform="scale(0.967665,1)"><path
           d="M 44.647,28.332 H 60.923"
           style="fill:none;stroke:#000000;stroke-width:0.763627;stroke-linecap:round;stroke-linejoin:miter;stroke-miterlimit:4;stroke-dasharray:none;stroke-opacity:1"
           id="path28" /></g><g
         id="g30"
         transform="scale(0.967665,1)"><path
           d="M 53.172,28.332 V 17.082"
           style="fill:none;stroke:#000000;stroke-width:0.762429;stroke-linecap:round;stroke-linejoin:miter;stroke-miterlimit:4;stroke-dasharray:none;stroke-opacity:1"
           id="path32" /></g><g
         id="g34"
         transform="scale(0.967665,1)"><path
           d="m 53.172,32.082 v 11.25"
           style="fill:none;stroke:#000000;stroke-width:0.762429;stroke-linecap:round;stroke-linejoin:miter;stroke-miterlimit:4;stroke-dasharray:none;stroke-opacity:1"
           id="path36" /></g><g
         id="g38"
         transform="scale(0.967665,1)"><path
           d="M 44.647,32.082 H 60.923"
           style="fill:none;stroke:#000000;stroke-width:0.763627;stroke-linecap:round;stroke-linejoin:miter;stroke-miterlimit:4;stroke-dasharray:none;stroke-opacity:1"
           id="path40" /></g><g
         id="g42"
         transform="scale(0.967665,1)"><path
           d="M 44.647,28.332 H 60.923"
           style="fill:none;stroke:#000000;stroke-width:0.763627;stroke-linecap:round;stroke-linejoin:miter;stroke-miterlimit:4;stroke-dasharray:none;stroke-opacity:1"
           id="path44" /></g><g
         id="g46"
         transform="scale(0.967665,1)"><path
           d="M 53.172,28.332 V 17.082"
           style="fill:none;stroke:#000000;stroke-width:0.762429;stroke-linecap:round;stroke-linejoin:miter;stroke-miterlimit:4;stroke-dasharray:none;stroke-opacity:1"
           id="path48" /></g><g
         id="g50"
         transform="scale(0.967665,1)"><path
           d="m 53.172,32.082 v 11.25"
           style="fill:none;stroke:#000000;stroke-width:0.762429;stroke-linecap:round;stroke-linejoin:miter;stroke-miterlimit:4;stroke-dasharray:none;stroke-opacity:1"
           id="path52" /></g><g
         id="g54"
         transform="scale(0.967665,1)"><path
           d="M 44.647,32.082 H 60.923"
           style="fill:none;stroke:#000000;stroke-width:0.763627;stroke-linecap:round;stroke-linejoin:miter;stroke-miterlimit:4;stroke-dasharray:none;stroke-opacity:1"
           id="path56" /></g><g
         id="g58"
         transform="scale(0.967665,1)"><path
           d="M 44.647,28.332 H 60.923"
           style="fill:none;stroke:#000000;stroke-width:0.763627;stroke-linecap:round;stroke-linejoin:miter;stroke-miterlimit:4;stroke-dasharray:none;stroke-opacity:1"
           id="path60" /></g><g
         id="g62"
         transform="scale(0.967665,1)"><path
           d="M 53.172,28.332 V 17.082"
           style="fill:none;stroke:#000000;stroke-width:0.762429;stroke-linecap:round;stroke-linejoin:miter;stroke-miterlimit:4;stroke-dasharray:none;stroke-opacity:1"
           id="path64" /></g><g
         id="g66"
         transform="scale(0.967665,1)"><path
           d="m 53.172,32.082 v 11.25"
           style="fill:none;stroke:#000000;stroke-width:0.762429;stroke-linecap:round;stroke-linejoin:miter;stroke-miterlimit:4;stroke-dasharray:none;stroke-opacity:1"
           id="path68" /></g><g
         id="g70"><path
           d="m 36.453,50.832 h 30"
           style="fill:none;stroke:#000000;stroke-width:0.749999;stroke-linecap:butt;stroke-linejoin:miter;stroke-miterlimit:4;stroke-dasharray:none;stroke-opacity:1"
           id="path72" /></g><g
         id="g74"><path
           d="m 36.453,9.582 h 30"
           style="fill:none;stroke:#000000;stroke-width:0.749999;stroke-linecap:butt;stroke-linejoin:miter;stroke-miterlimit:4;stroke-dasharray:none;stroke-opacity:1"
           id="path76" /></g><text
         transform="translate(60.452016,32.832074)"
         style="font-variant:normal;font-weight:normal;font-size:7.99999px;font-family:'DejaVu Sans';-inkscape-font-specification:DejaVuSans;writing-mode:lr-tb;fill:#000000;fill-opacity:1;fill-rule:nonzero;stroke:none"
         id="text80"><tspan
           x="0"
           y="0"
           id="tspan78">C</tspan></text><text
         transform="translate(66.037949,34.432073)"
         style="font-variant:normal;font-weight:normal;font-size:5.2px;font-family:'DejaVu Sans';-inkscape-font-specification:DejaVuSans;writing-mode:lr-tb;fill:#000000;fill-opacity:1;fill-rule:nonzero;stroke:none"
         id="text84"><tspan
           sodipodi:role="line"
           id="tspan82"
           x="0"
           y="0" /></text><path
         d="m 101.328,9.582 c 0,0.621 -0.504,1.125 -1.125,1.125 -0.625,0 -1.129,-0.504 -1.129,-1.125 0,-0.621 0.504,-1.125 1.129,-1.125 0.621,0 1.125,0.504 1.125,1.125 z"
         style="fill:#000000;fill-opacity:1;fill-rule:nonzero;stroke:none"
         id="path86" /><path
         d="m 101.328,50.832 c 0,0.621 -0.504,1.125 -1.125,1.125 -0.625,0 -1.129,-0.504 -1.129,-1.125 0,-0.621 0.504,-1.125 1.129,-1.125 0.621,0 1.125,0.504 1.125,1.125 z"
         style="fill:#000000;fill-opacity:1;fill-rule:nonzero;stroke:none"
         id="path88" /><path
         d="m 3.828,9.582 c 0,0.621 -0.504,1.125 -1.125,1.125 -0.625,0 -1.129,-0.504 -1.129,-1.125 0,-0.621 0.504,-1.125 1.129,-1.125 0.621,0 1.125,0.504 1.125,1.125 z"
         style="fill:#000000;fill-opacity:1;fill-rule:nonzero;stroke:none"
         id="path90" /><path
         d="m 3.828,50.832 c 0,0.621 -0.504,1.125 -1.125,1.125 -0.625,0 -1.129,-0.504 -1.129,-1.125 0,-0.621 0.504,-1.125 1.129,-1.125 0.621,0 1.125,0.504 1.125,1.125 z"
         style="fill:#000000;fill-opacity:1;fill-rule:nonzero;stroke:none"
         id="path92" /><text
         transform="translate(0.0234375,5.832027)"
         style="font-variant:normal;font-weight:normal;font-size:7.99999px;font-family:'DejaVu Sans';-inkscape-font-specification:DejaVuSans;writing-mode:lr-tb;fill:#000000;fill-opacity:1;fill-rule:nonzero;stroke:none"
         id="text96"><tspan
           x="0"
           y="0"
           id="tspan94">T</tspan></text><text
         transform="translate(4.910153,7.432026)"
         style="font-variant:normal;font-weight:normal;font-size:5.2px;font-family:'DejaVu Sans';-inkscape-font-specification:DejaVuSans;writing-mode:lr-tb;fill:#000000;fill-opacity:1;fill-rule:nonzero;stroke:none"
         id="text100"><tspan
           x="0"
           y="0"
           id="tspan98">1</tspan></text><text
         transform="translate(97.523445,6.769541)"
         style="font-variant:normal;font-weight:normal;font-size:8.00002px;font-family:'DejaVu Sans';-inkscape-font-specification:DejaVuSans;writing-mode:lr-tb;fill:#000000;fill-opacity:1;fill-rule:nonzero;stroke:none"
         id="text104"><tspan
           x="0"
           y="0"
           id="tspan102">T</tspan></text><text
         transform="translate(102.41018,8.369546)"
         style="font-variant:normal;font-weight:normal;font-size:5.19999px;font-family:'DejaVu Sans';-inkscape-font-specification:DejaVuSans;writing-mode:lr-tb;fill:#000000;fill-opacity:1;fill-rule:nonzero;stroke:none"
         id="text108"><tspan
           x="0"
           y="0"
           id="tspan106">2</tspan></text><text
         transform="translate(97.255577,47.885593)"
         style="font-variant:normal;font-weight:normal;font-size:8.00002px;font-family:'DejaVu Sans';-inkscape-font-specification:DejaVuSans;writing-mode:lr-tb;fill:#000000;fill-opacity:1;fill-rule:nonzero;stroke:none"
         id="text112"><tspan
           x="0"
           y="0"
           id="tspan110">B</tspan></text><text
         transform="translate(102.74387,49.485598)"
         style="font-variant:normal;font-weight:normal;font-size:5.19999px;font-family:'DejaVu Sans';-inkscape-font-specification:DejaVuSans;writing-mode:lr-tb;fill:#000000;fill-opacity:1;fill-rule:nonzero;stroke:none"
         id="text116"><tspan
           x="0"
           y="0"
           id="tspan114">2</tspan></text><text
         transform="translate(0.0234375,47.483814)"
         style="font-variant:normal;font-weight:normal;font-size:8.00002px;font-family:'DejaVu Sans';-inkscape-font-specification:DejaVuSans;writing-mode:lr-tb;fill:#000000;fill-opacity:1;fill-rule:nonzero;stroke:none"
         id="text120"><tspan
           x="0"
           y="0"
           id="tspan118">B</tspan></text><text
         transform="translate(5.511734,49.083818)"
         style="font-variant:normal;font-weight:normal;font-size:5.19999px;font-family:'DejaVu Sans';-inkscape-font-specification:DejaVuSans;writing-mode:lr-tb;fill:#000000;fill-opacity:1;fill-rule:nonzero;stroke:none"
         id="text124"><tspan
           x="0"
           y="0"
           id="tspan122">1</tspan></text><path
         d="m 52.578,50.832 c 0,0.621 -0.504,1.125 -1.125,1.125 -0.625,0 -1.129,-0.504 -1.129,-1.125 0,-0.621 0.504,-1.125 1.129,-1.125 0.621,0 1.125,0.504 1.125,1.125 z"
         style="fill:#000000;fill-opacity:1;fill-rule:nonzero;stroke:none"
         id="path126" /><path
         d="m 52.578,9.582 c 0,0.621 -0.504,1.125 -1.125,1.125 -0.625,0 -1.129,-0.504 -1.129,-1.125 0,-0.621 0.504,-1.125 1.129,-1.125 0.621,0 1.125,0.504 1.125,1.125 z"
         style="fill:#000000;fill-opacity:1;fill-rule:nonzero;stroke:none"
         id="path128" /><g
         id="g130"><path
           d="m 51.453,9.582 v 7.5"
           style="fill:none;stroke:#000000;stroke-width:0.749999;stroke-linecap:butt;stroke-linejoin:miter;stroke-miterlimit:4;stroke-dasharray:none;stroke-opacity:1"
           id="path132" /></g><g
         id="g134"><path
           d="m 51.453,43.332 v 7.5"
           style="fill:none;stroke:#000000;stroke-width:0.749999;stroke-linecap:butt;stroke-linejoin:miter;stroke-miterlimit:4;stroke-dasharray:none;stroke-opacity:1"
           id="path136" /></g><g
         id="g138"><path
           d="m 2.703,9.582 h 33.75"
           style="fill:none;stroke:#000000;stroke-width:0.749999;stroke-linecap:butt;stroke-linejoin:miter;stroke-miterlimit:4;stroke-dasharray:none;stroke-opacity:1"
           id="path140" /></g><g
         id="g142"><path
           d="m 2.703,50.832 h 33.75"
           style="fill:none;stroke:#000000;stroke-width:0.749999;stroke-linecap:butt;stroke-linejoin:miter;stroke-miterlimit:4;stroke-dasharray:none;stroke-opacity:1"
           id="path144" /></g><g
         id="g146"><path
           d="m 66.453,9.582 h 11.25"
           style="fill:none;stroke:#000000;stroke-width:0.749999;stroke-linecap:butt;stroke-linejoin:miter;stroke-miterlimit:4;stroke-dasharray:none;stroke-opacity:1"
           id="path148" /></g><g
         id="g150"><path
           d="m 88.953,9.582 h 11.25"
           style="fill:none;stroke:#000000;stroke-width:0.749999;stroke-linecap:butt;stroke-linejoin:miter;stroke-miterlimit:4;stroke-dasharray:none;stroke-opacity:1"
           id="path152" /></g><g
         id="g154"><path
           d="m 88.953,50.832 h 11.25"
           style="fill:none;stroke:#000000;stroke-width:0.749999;stroke-linecap:butt;stroke-linejoin:miter;stroke-miterlimit:4;stroke-dasharray:none;stroke-opacity:1"
           id="path156" /></g><g
         id="g158"><path
           d="m 66.453,50.832 h 11.25"
           style="fill:none;stroke:#000000;stroke-width:0.749999;stroke-linecap:butt;stroke-linejoin:miter;stroke-miterlimit:4;stroke-dasharray:none;stroke-opacity:1"
           id="path160" /></g><g
         id="g162"><path
           d="m 79.953,9.582 c 0,0.621 -0.504,1.125 -1.125,1.125 -0.621,0 -1.125,-0.504 -1.125,-1.125 0,-0.621 0.504,-1.125 1.125,-1.125 0.621,0 1.125,0.504 1.125,1.125 z"
           style="fill:none;stroke:#000000;stroke-width:0.470551;stroke-linecap:butt;stroke-linejoin:round;stroke-miterlimit:4;stroke-dasharray:none;stroke-opacity:1"
           id="path164" /></g><g
         id="g166"><path
           d="m 88.953,9.582 c 0,0.621 -0.504,1.125 -1.125,1.125 -0.621,0 -1.125,-0.504 -1.125,-1.125 0,-0.621 0.504,-1.125 1.125,-1.125 0.621,0 1.125,0.504 1.125,1.125 z"
           style="fill:none;stroke:#000000;stroke-width:0.470551;stroke-linecap:butt;stroke-linejoin:round;stroke-miterlimit:4;stroke-dasharray:none;stroke-opacity:1"
           id="path168" /></g><g
         id="g170"><path
           d="m 79.953,50.832 c 0,0.621 -0.504,1.125 -1.125,1.125 -0.621,0 -1.125,-0.504 -1.125,-1.125 0,-0.621 0.504,-1.125 1.125,-1.125 0.621,0 1.125,0.504 1.125,1.125 z"
           style="fill:none;stroke:#000000;stroke-width:0.470551;stroke-linecap:butt;stroke-linejoin:round;stroke-miterlimit:4;stroke-dasharray:none;stroke-opacity:1"
           id="path172" /></g><g
         id="g174"><path
           d="m 88.953,50.832 c 0,0.621 -0.504,1.125 -1.125,1.125 -0.621,0 -1.125,-0.504 -1.125,-1.125 0,-0.621 0.504,-1.125 1.125,-1.125 0.621,0 1.125,0.504 1.125,1.125 z"
           style="fill:none;stroke:#000000;stroke-width:0.470551;stroke-linecap:butt;stroke-linejoin:round;stroke-miterlimit:4;stroke-dasharray:none;stroke-opacity:1"
           id="path176" /></g><text
         transform="translate(25.926344,33.784706)"
         style="font-variant:normal;font-weight:normal;font-size:9px;font-family:'DejaVu Sans';-inkscape-font-specification:DejaVuSans;writing-mode:lr-tb;fill:#000000;fill-opacity:1;fill-rule:nonzero;stroke:none"
         id="text180"><tspan
           x="0"
           y="0"
           id="tspan178">V</tspan></text><text
         transform="translate(32.083082,35.584706)"
         style="font-variant:normal;font-weight:normal;font-size:5.85px;font-family:'DejaVu Sans';-inkscape-font-specification:DejaVuSans;writing-mode:lr-tb;fill:#000000;fill-opacity:1;fill-rule:nonzero;stroke:none"
         id="text184"><tspan
           x="0"
           y="0"
           id="tspan182">C</tspan></text><g
         id="g186"><path
           d="m 27.453,18.582 h 3"
           style="fill:none;stroke:#000000;stroke-width:0.749999;stroke-linecap:butt;stroke-linejoin:miter;stroke-miterlimit:4;stroke-dasharray:none;stroke-opacity:1"
           id="path188" /></g><g
         id="g190"><path
           d="m 28.953,17.082 v 3"
           style="fill:none;stroke:#000000;stroke-width:0.749999;stroke-linecap:butt;stroke-linejoin:miter;stroke-miterlimit:4;stroke-dasharray:none;stroke-opacity:1"
           id="path192" /></g><g
         id="g194"><path
           d="m 27.453,41.832 h 3"
           style="fill:none;stroke:#000000;stroke-width:0.749999;stroke-linecap:butt;stroke-linejoin:miter;stroke-miterlimit:4;stroke-dasharray:none;stroke-opacity:1"
           id="path196" /></g></g></g></svg>
